<svg width="64" height="65" viewBox="0 0 64 65" fill="none" xmlns="http://www.w3.org/2000/svg">
<path opacity="0.2" d="M56.0001 18.5L48.8701 41.6775C48.6183 42.4952 48.1109 43.2106 47.4224 43.7186C46.7339 44.2266 45.9007 44.5005 45.0451 44.5H21.0176C20.1483 44.5004 19.3025 44.2175 18.6083 43.6943C17.9141 43.171 17.4092 42.4358 17.1701 41.6L10.5726 18.5H56.0001Z" fill="#A7A5AF"/>
<path d="M24 54.5C24 55.2911 23.7654 56.0645 23.3259 56.7223C22.8864 57.3801 22.2616 57.8928 21.5307 58.1955C20.7998 58.4983 19.9956 58.5775 19.2196 58.4231C18.4437 58.2688 17.731 57.8878 17.1716 57.3284C16.6122 56.769 16.2312 56.0563 16.0769 55.2804C15.9225 54.5044 16.0017 53.7002 16.3045 52.9693C16.6072 52.2384 17.1199 51.6137 17.7777 51.1741C18.4355 50.7346 19.2089 50.5 20 50.5C21.0609 50.5 22.0783 50.9214 22.8284 51.6716C23.5786 52.4217 24 53.4391 24 54.5ZM46 50.5C45.2089 50.5 44.4355 50.7346 43.7777 51.1741C43.1199 51.6137 42.6072 52.2384 42.3045 52.9693C42.0017 53.7002 41.9225 54.5044 42.0769 55.2804C42.2312 56.0563 42.6122 56.769 43.1716 57.3284C43.731 57.8878 44.4437 58.2688 45.2196 58.4231C45.9956 58.5775 46.7998 58.4983 47.5307 58.1955C48.2616 57.8928 48.8864 57.3801 49.3259 56.7223C49.7654 56.0645 50 55.2911 50 54.5C50 53.4391 49.5786 52.4217 48.8284 51.6716C48.0783 50.9214 47.0609 50.5 46 50.5ZM57.9125 19.0875L50.78 42.265C50.4064 43.4937 49.6468 44.5692 48.6137 45.3321C47.5806 46.0949 46.3292 46.5045 45.045 46.5H21.0175C19.7149 46.4951 18.449 46.0684 17.4093 45.2838C16.3695 44.4991 15.612 43.3988 15.25 42.1475L6.205 10.5H2C1.46957 10.5 0.960859 10.2893 0.585787 9.91421C0.210714 9.53914 0 9.03043 0 8.5C0 7.96957 0.210714 7.46086 0.585787 7.08579C0.960859 6.71071 1.46957 6.5 2 6.5H6.205C7.07352 6.50288 7.91776 6.78697 8.61133 7.30974C9.30491 7.83252 9.81053 8.56586 10.0525 9.4L12.08 16.5H56C56.313 16.4999 56.6216 16.5732 56.9011 16.7141C57.1806 16.855 57.4231 17.0595 57.6091 17.3112C57.7951 17.5629 57.9195 17.8547 57.9722 18.1633C58.0249 18.4718 58.0044 18.7883 57.9125 19.0875ZM53.2925 20.5H13.2225L19.095 41.05C19.2145 41.4677 19.4667 41.8352 19.8136 42.0968C20.1604 42.3584 20.583 42.4999 21.0175 42.5H45.045C45.473 42.5002 45.8897 42.363 46.2339 42.1088C46.5782 41.8545 46.8318 41.4966 46.9575 41.0875L53.2925 20.5Z" fill="#A7A5AF"/>
</svg>
