<svg width="25" height="14" viewBox="0 0 25 14" fill="none" xmlns="http://www.w3.org/2000/svg">
<path d="M23.671 4.7765L22.5 4.191V3.5C22.5 3.10218 22.342 2.72064 22.0607 2.43934C21.7794 2.15804 21.3978 2 21 2H20V1.5C20 1.10218 19.842 0.720644 19.5607 0.43934C19.2794 0.158035 18.8978 0 18.5 0H17C16.6022 0 16.2207 0.158035 15.9393 0.43934C15.658 0.720644 15.5 1.10218 15.5 1.5V5H9.50001V1.5C9.50001 1.10218 9.34197 0.720644 9.06067 0.43934C8.77936 0.158035 8.39783 0 8.00001 0H6.50001C6.10218 0 5.72065 0.158035 5.43935 0.43934C5.15804 0.720644 5.00001 1.10218 5.00001 1.5V2H4.00001C3.60218 2 3.22065 2.15804 2.93935 2.43934C2.65804 2.72064 2.50001 3.10218 2.50001 3.5V4.191L1.32901 4.7765C1.07932 4.90035 0.86931 5.09167 0.72279 5.32877C0.576269 5.56588 0.499093 5.83928 0.500008 6.118V7.882C0.499093 8.16072 0.576269 8.43412 0.72279 8.67123C0.86931 8.90833 1.07932 9.09965 1.32901 9.2235L2.50001 9.809V10.5C2.50001 10.8978 2.65804 11.2794 2.93935 11.5607C3.22065 11.842 3.60218 12 4.00001 12H5.00001V12.5C5.00001 12.8978 5.15804 13.2794 5.43935 13.5607C5.72065 13.842 6.10218 14 6.50001 14H8.00001C8.39783 14 8.77936 13.842 9.06067 13.5607C9.34197 13.2794 9.50001 12.8978 9.50001 12.5V9H15.5V12.5C15.5 12.8978 15.658 13.2794 15.9393 13.5607C16.2207 13.842 16.6022 14 17 14H18.5C18.8978 14 19.2794 13.842 19.5607 13.5607C19.842 13.2794 20 12.8978 20 12.5V12H21C21.3978 12 21.7794 11.842 22.0607 11.5607C22.342 11.2794 22.5 10.8978 22.5 10.5V9.809L23.671 9.2235C23.9207 9.09965 24.1307 8.90833 24.2772 8.67123C24.4237 8.43412 24.5009 8.16072 24.5 7.882V6.118C24.5009 5.83928 24.4237 5.56588 24.2772 5.32877C24.1307 5.09167 23.9207 4.90035 23.671 4.7765ZM1.77651 8.329C1.69325 8.28778 1.62321 8.22405 1.57433 8.14504C1.52546 8.06603 1.49971 7.9749 1.50001 7.882V6.118C1.49971 6.0251 1.52546 5.93397 1.57433 5.85496C1.62321 5.77595 1.69325 5.71222 1.77651 5.671L2.50001 5.309V8.691L1.77651 8.329ZM4.00001 11C3.8674 11 3.74022 10.9473 3.64645 10.8536C3.55269 10.7598 3.50001 10.6326 3.50001 10.5V3.5C3.50001 3.36739 3.55269 3.24021 3.64645 3.14645C3.74022 3.05268 3.8674 3 4.00001 3H5.00001V11H4.00001ZM8.50001 12.5C8.50001 12.6326 8.44733 12.7598 8.35356 12.8536C8.25979 12.9473 8.13262 13 8.00001 13H6.50001C6.3674 13 6.24022 12.9473 6.14645 12.8536C6.05269 12.7598 6.00001 12.6326 6.00001 12.5V1.5C6.00001 1.36739 6.05269 1.24021 6.14645 1.14645C6.24022 1.05268 6.3674 1 6.50001 1H8.00001C8.13262 1 8.25979 1.05268 8.35356 1.14645C8.44733 1.24021 8.50001 1.36739 8.50001 1.5V12.5ZM9.50001 8V6H15.5V8H9.50001ZM19 12.5C19 12.6326 18.9473 12.7598 18.8536 12.8536C18.7598 12.9473 18.6326 13 18.5 13H17C16.8674 13 16.7402 12.9473 16.6465 12.8536C16.5527 12.7598 16.5 12.6326 16.5 12.5V1.5C16.5 1.36739 16.5527 1.24021 16.6465 1.14645C16.7402 1.05268 16.8674 1 17 1H18.5C18.6326 1 18.7598 1.05268 18.8536 1.14645C18.9473 1.24021 19 1.36739 19 1.5V12.5ZM21.5 10.5C21.5 10.6326 21.4473 10.7598 21.3536 10.8536C21.2598 10.9473 21.1326 11 21 11H20V3H21C21.1326 3 21.2598 3.05268 21.3536 3.14645C21.4473 3.24021 21.5 3.36739 21.5 3.5V10.5ZM23.5 7.882C23.5003 7.9749 23.4746 8.06603 23.4257 8.14504C23.3768 8.22405 23.3068 8.28778 23.2235 8.329L22.5 8.691V5.309L23.2235 5.671C23.3068 5.71222 23.3768 5.77595 23.4257 5.85496C23.4746 5.93397 23.5003 6.0251 23.5 6.118V7.882Z" fill="#323135"/>
</svg>
