<svg width="44" height="44" viewBox="0 0 44 44" fill="none" xmlns="http://www.w3.org/2000/svg">
<path d="M31.5 26L31.989 26.5687C32.2614 26.3344 32.3294 25.9399 32.1512 25.6279L31.5 26ZM12.5 26L11.8488 25.6279C11.6706 25.9399 11.7386 26.3344 12.011 26.5687L12.5 26ZM29.5 22.5H28.75V22.6992L28.8488 22.8721L29.5 22.5ZM14.5 22.5L15.1512 22.8721L15.25 22.6992V22.5H14.5ZM22 29.75C26.0514 29.75 29.7088 28.5294 31.989 26.5687L31.011 25.4313C29.0683 27.1018 25.7895 28.25 22 28.25V29.75ZM12.011 26.5687C14.2912 28.5294 17.9486 29.75 22 29.75V28.25C18.2105 28.25 14.9316 27.1018 12.989 25.4313L12.011 26.5687ZM32.1512 25.6279L30.1512 22.1279L28.8488 22.8721L30.8488 26.3721L32.1512 25.6279ZM30.25 22.5V19.5H28.75V22.5H30.25ZM13.75 19.5V22.5H15.25V19.5H13.75ZM13.8488 22.1279L11.8488 25.6279L13.1512 26.3721L15.1512 22.8721L13.8488 22.1279ZM22 11.25C17.4437 11.25 13.75 14.9437 13.75 19.5H15.25C15.25 15.7721 18.2721 12.75 22 12.75V11.25ZM30.25 19.5C30.25 14.9437 26.5563 11.25 22 11.25V12.75C25.7279 12.75 28.75 15.7721 28.75 19.5H30.25ZM17.25 28C17.25 30.6234 19.3766 32.75 22 32.75V31.25C20.2051 31.25 18.75 29.7949 18.75 28H17.25ZM22 32.75C24.6234 32.75 26.75 30.6234 26.75 28H25.25C25.25 29.7949 23.7949 31.25 22 31.25V32.75Z" fill="#323135"/>
</svg>
